#!OML:ASF X:\für Bonn\!DataBase\2005_08_12_Daniel\c3d\Daniel.ASF
:FULLY-SPECIFIED
:DEGREES
94
root -2.21223 18.0121 -1.2158 -178.371 -44.5697 173.8
lowerback 12.838 2.08146 -0.278816
upperback 2.1024 2.40305 -2.45064
thorax -4.8864 1.09493 -2.81049
lowerneck -5.38482 0.0706524 -5.41093
upperneck 6.04021 0.477094 0.295676
head 2.86618 0.103197 1.05796
rclavicle 3.76076e-014 -3.47873e-015
rhumerus -56.3709 17.3491 -107.022
rradius 99.5424
rwrist -3.15445
rhand -16.3516 26.7067
rfingers 7.12502
rthumb 9.86098 -3.0424
lclavicle 3.76076e-014 -3.47873e-015
lhumerus -71.2541 -4.09121 97.9073
lradius 105.335
lwrist 13.4365
lhand -1.93442 -9.51643
lfingers 7.12502
lthumb 23.7363 19.0377
rfemur 11.8867 3.46452 20.777
rtibia 30.06
rfoot -2.3409 -8.97618
rtoes -3.46152
lfemur -30.8093 2.35632 -26.9785
ltibia 72.4814
lfoot -1.64261 -3.29587
ltoes -12.3467
95
root -2.48852 18.1165 -1.50485 -177.978 -44.6288 173.637
lowerback 12.3748 2.15966 -0.630042
upperback 1.98941 2.47034 -2.52686
thorax -4.75881 1.13745 -2.68644
lowerneck -5.54944 0.0373593 -5.54891
upperneck 6.34138 0.442497 0.515578
head 3.00259 0.0842593 1.15677
rclavicle 2.00897e-014 2.62396e-014
rhumerus -56.9468 18.3417 -107.715
rradius 100.382
rwrist -3.64065
rhand -15.8048 26.608
rfingers 7.12502
rthumb 10.3885 -3.11535
lclavicle 2.00897e-014 2.62396e-014
lhumerus -71.5125 -4.25888 97.6208
lradius 105.76
lwrist 13.9709
lhand -1.86419 -9.51857
lfingers 7.12502
lthumb 23.8036 19.0268
rfemur 12.8747 4.15335 20.9442
rtibia 29.1721
rfoot 0.787147 -10.714
rtoes -2.84803
lfemur -30.4654 2.2843 -27.2138
ltibia 68.253
lfoot -1.07084 -3.89242
ltoes -13.4745
96
root -2.76903 18.2254 -1.79461 -177.645 -44.7238 173.552
lowerback 11.9464 2.1927 -0.892884
upperback 1.85693 2.49168 -2.60373
thorax -4.6686 1.15565 -2.60736
lowerneck -5.70928 0.0156584 -5.64526
upperneck 6.66568 0.421474 0.692515
head 3.14622 0.0709551 1.23539
rclavicle -1.5991e-013 2.27608e-014
rhumerus -57.5666 19.3208 -108.415
rradius 101.049
rwrist -4.23094
rhand -15.4463 26.6708
rfingers 7.12502
rthumb 10.7343 -3.03496
lclavicle -1.5991e-013 2.27608e-014
lhumerus -71.8864 -4.3317 97.2831
lradius 106.189
lwrist 14.4901
lhand -1.84983 -9.57765
lfingers 7.12502
lthumb 23.8174 18.9659
rfemur 13.9193 4.50021 21.0482
rtibia 28.2275
rfoot 3.66582 -12.1063
rtoes -3.11896
lfemur -29.9534 1.78863 -27.3295
ltibia 63.9137
lfoot -0.557605 -4.11843
ltoes -13.0329
97
root -3.05152 18.3216 -2.08146 -177.387 -44.8139 173.568
lowerback 11.5401 2.19891 -1.03856
upperback 1.7221 2.49274 -2.69096
thorax -4.58772 1.16169 -2.60289
lowerneck -5.85777 0.00768795 -5.74144
upperneck 6.95827 0.415059 0.901298
head 3.2773 0.0671862 1.3254
rclavicle -2.04251e-014 -1.43125e-014
rhumerus -58.1812 20.1855 -109.111
rradius 101.558
rwrist -4.73137
rhand -15.2831 26.7787
rfingers 7.12502
rthumb 10.8917 -2.9188
lclavicle -2.04251e-014 -1.43125e-014
lhumerus -72.339 -4.37718 96.895
lradius 106.647
lwrist 14.9675
lhand -1.93985 -9.63945
lfingers 7.12502
lthumb 23.7311 18.9154
rfemur 14.9462 4.34198 21.001
rtibia 27.3061
rfoot 6.35054 -12.851
rtoes -3.94269
lfemur -29.3902 1.17534 -27.3232
ltibia 59.5791
lfoot -0.241136 -4.02206
ltoes -12.0563
98
root -3.3354 18.4045 -2.36658 -177.2 -44.9471 173.64
lowerback 11.1715 2.17478 -1.11959
upperback 1.59909 2.46233 -2.75917
thorax -4.51392 1.15105 -2.61149
lowerneck -5.96931 0.00495145 -5.87381
upperneck 7.22508 0.416753 1.0859
head 3.3929 0.0658358 1.41426
rclavicle 5.3324e-014 -2.38542e-014
rhumerus -58.8021 20.9161 -109.721
rradius 101.958
rwrist -5.12188
rhand -15.1955 26.8735
rfingers 7.12502
rthumb 10.9762 -2.81953
lclavicle 5.3324e-014 -2.38542e-014
lhumerus -72.9007 -4.36044 96.5208
lradius 107.182
lwrist 15.3834
lhand -2.05587 -9.70216
lfingers 7.12502
lthumb 23.6198 18.867
rfemur 15.9477 3.92278 20.9077
rtibia 26.5387
rfoot 8.67155 -13.2665
rtoes -4.24329
lfemur -28.7444 0.53963 -27.2529
ltibia 55.2552
lfoot -0.079042 -3.93849
ltoes -12.0293
99
root -3.62032 18.4755 -2.6519 -177.085 -45.0902 173.794
lowerback 10.805 2.13415 -1.1298
upperback 1.49588 2.41938 -2.81788
thorax -4.41799 1.13307 -2.64783
lowerneck -6.10322 0.00464609 -5.96059
upperneck 7.47188 0.420127 1.25445
head 3.50609 0.0667048 1.49024
rclavicle 4.72114e-015 1.59028e-015
rhumerus -59.4297 21.4116 -110.244
rradius 102.279
rwrist -5.28652
rhand -15.1553 26.932
rfingers 7.12502
rthumb 11.0149 -2.759
lclavicle 4.72114e-015 1.59028e-015
lhumerus -73.485 -4.35215 96.1183
lradius 107.755
lwrist 15.7041
lhand -2.21666 -9.7455
lfingers 7.12502
lthumb 23.4656 18.8435
rfemur 16.8385 3.3734 20.8286
rtibia 26.0411
rfoot 10.459 -13.3847
rtoes -5.06062
lfemur -28.0435 -0.0611181 -27.0754
ltibia 51.0089
lfoot -0.114962 -3.97385
ltoes -12.7672
100
root -3.90204 18.5238 -2.93303 -176.995 -45.258 173.962
lowerback 10.4498 2.07346 -1.15815
upperback 1.41562 2.35043 -2.82973
thorax -4.30772 1.10291 -2.62147
lowerneck -6.28559 0.0108897 -6.05338
upperneck 7.73911 0.441767 1.34322
head 3.63546 0.0724541 1.54252
rclavicle -6.71644e-014 -4.37326e-015
rhumerus -60.0374 21.7895 -110.629
rradius 102.48
rwrist -5.32179
rhand -15.1004 26.9282
rfingers 7.12502
rthumb 11.068 -2.75995
lclavicle -6.71644e-014 -4.37326e-015
lhumerus -74.0008 -4.25469 95.7625
lradius 108.293
lwrist 15.8986
lhand -2.38994 -9.8757
lfingers 7.12502
lthumb 23.2993 18.7345
rfemur 17.5703 2.77565 20.7498
rtibia 25.8878
rfoot 11.71 -13.2818
rtoes -6.19067
lfemur -27.2716 -0.513628 -26.9413
ltibia 46.9367
lfoot -0.340711 -3.94667
ltoes -12.778
101
root -4.18313 18.562 -3.21517 -176.996 -45.4254 174.199
lowerback 10.0999 2.01204 -1.16627
upperback 1.37592 2.28524 -2.80159
thorax -4.15843 1.07459 -2.56487
lowerneck -6.51923 0.0133583 -6.14311
upperneck 8.004 0.465274 1.39182
head 3.77458 0.0775682 1.58166
rclavicle -3.91357e-014 2.62396e-014
rhumerus -60.5846 22.1411 -110.875
rradius 102.581
rwrist -5.32379
rhand -15.0501 26.8326
rfingers 7.12502
rthumb 11.1164 -2.85302
lclavicle -3.91357e-014 2.62396e-014
lhumerus -74.3915 -4.17531 95.4263
lradius 108.783
lwrist 16.0092
lhand -2.50989 -10.1127
lfingers 7.12502
lthumb 23.1843 18.512
rfemur 18.1375 2.20975 20.7404
rtibia 26.1433
rfoot 12.4472 -13.0809
rtoes -7.2994
lfemur -26.4881 -1.00513 -26.7023
ltibia 43.1082
lfoot -0.773031 -3.63143
ltoes -11.9254
102
root -4.4632 18.5953 -3.49626 -176.993 -45.6071 174.415
lowerback 9.76535 1.93694 -1.17416
upperback 1.35114 2.19914 -2.79477
thorax -4.00172 1.03501 -2.52886
lowerneck -6.75069 0.0243213 -6.14954
upperneck 8.26606 0.493872 1.41912
head 3.91221 0.0870024 1.59897
rclavicle 6.78353e-015 3.97569e-016
rhumerus -61.0468 22.4186 -111.073
rradius 102.54
rwrist -5.30831
rhand -14.9693 26.6824
rfingers 7.12502
rthumb 11.1943 -2.99892
lclavicle 6.78353e-015 3.97569e-016
lhumerus -74.6652 -4.11143 95.065
lradius 109.229
lwrist 16.0705
lhand -2.63946 -10.3762
lfingers 7.12502
lthumb 23.0599 18.264
rfemur 18.4418 1.68879 20.7188
rtibia 26.8802
rfoot 12.7902 -12.8916
rtoes -7.57634
lfemur -25.7598 -1.58177 -26.4593
ltibia 39.6252
lfoot -1.51855 -3.00857
ltoes -13.0826
103
root -4.74109 18.6135 -3.77621 -177.068 -45.7867 174.658
lowerback 9.49818 1.85217 -1.18287
upperback 1.34094 2.09898 -2.76329
thorax -3.86855 0.988175 -2.46804
lowerneck -6.98074 0.048527 -6.09379
upperneck 8.52993 0.54125 1.35595
head 4.04943 0.103196 1.57533
rclavicle 3.77691e-015 3.02153e-014
rhumerus -61.4161 22.6108 -111.19
rradius 102.369
rwrist -5.31358
rhand -14.7713 26.5675
rfingers 7.12502
rthumb 11.3853 -3.10343
lclavicle 3.77691e-015 3.02153e-014
lhumerus -74.8474 -4.03167 94.7122
lradius 109.579
lwrist 15.9903
lhand -2.76428 -10.7966
lfingers 7.12502
lthumb 22.9402 17.8586
rfemur 18.5722 1.23196 20.7227
rtibia 28.049
rfoot 12.8321 -12.728
rtoes -6.97788
lfemur -25.0417 -2.09675 -26.2192
ltibia 36.542
lfoot -2.47914 -2.00511
ltoes -14.6163
104
root -5.01607 18.6151 -4.05379 -177.195 -45.9886 174.923
lowerback 9.25377 1.74249 -1.1755
upperback 1.37083 1.96716 -2.71612
thorax -3.70712 0.925096 -2.39671
lowerneck -7.22252 0.0778921 -6.00045
upperneck 8.73318 0.598108 1.23616
head 4.16732 0.124062 1.52555
rclavicle -6.03311e-014 5.56597e-015
rhumerus -61.5889 22.8053 -111.213
rradius 102.096
rwrist -5.4196
rhand -14.5259 26.3868
rfingers 7.12502
rthumb 11.6219 -3.27092
lclavicle -6.03311e-014 5.56597e-015
lhumerus -74.8609 -4.00858 94.3768
lradius 109.801
lwrist 15.895
lhand -2.94312 -11.3052
lfingers 7.12502
lthumb 22.7686 17.3712
rfemur 18.5018 0.821384 20.7551
rtibia 29.6507
rfoot 12.5122 -12.5953
rtoes -6.08466
lfemur -24.3898 -2.34711 -26.0542
ltibia 33.9387
lfoot -3.30148 -0.785646
ltoes -14.5889
